<mxfile host="app.diagrams.net" modified="2020-10-29T03:07:07.649Z" agent="5.0 (Macintosh; Intel Mac OS X 10_15_7) AppleWebKit/537.36 (KHTML, like Gecko) Chrome/86.0.4240.111 Safari/537.36" etag="izxh0o6ZhOjEhF5xC8gb" version="13.8.3" type="github">
  <diagram id="dF1XL6WRzTdZwQkR2Qwr" name="Page-1">
    <mxGraphModel dx="1259" dy="843" grid="1" gridSize="10" guides="1" tooltips="1" connect="1" arrows="1" fold="1" page="1" pageScale="1" pageWidth="827" pageHeight="1169" math="0" shadow="0">
      <root>
        <mxCell id="0" />
        <mxCell id="1" parent="0" />
        <mxCell id="1FCEnOmXXoxcdBwHK99l-1" value="数据接入(source)" style="rounded=0;whiteSpace=wrap;html=1;fillColor=#f9f7ed;strokeColor=#36393d;" vertex="1" parent="1">
          <mxGeometry x="370" y="200" width="180" height="60" as="geometry" />
        </mxCell>
        <mxCell id="1FCEnOmXXoxcdBwHK99l-2" value="第一步" style="text;html=1;strokeColor=none;fillColor=none;align=center;verticalAlign=middle;whiteSpace=wrap;rounded=0;" vertex="1" parent="1">
          <mxGeometry x="280" y="220" width="40" height="20" as="geometry" />
        </mxCell>
        <mxCell id="1FCEnOmXXoxcdBwHK99l-3" value="数据清洗(transform)" style="rounded=0;whiteSpace=wrap;html=1;" vertex="1" parent="1">
          <mxGeometry x="370" y="320" width="180" height="60" as="geometry" />
        </mxCell>
        <mxCell id="1FCEnOmXXoxcdBwHK99l-4" value="第二步" style="text;html=1;strokeColor=none;fillColor=none;align=center;verticalAlign=middle;whiteSpace=wrap;rounded=0;" vertex="1" parent="1">
          <mxGeometry x="280" y="340" width="40" height="20" as="geometry" />
        </mxCell>
        <mxCell id="1FCEnOmXXoxcdBwHK99l-5" value="数据写入(sink)" style="rounded=0;whiteSpace=wrap;html=1;fillColor=#f9f7ed;strokeColor=#36393d;" vertex="1" parent="1">
          <mxGeometry x="370" y="440" width="180" height="60" as="geometry" />
        </mxCell>
        <mxCell id="1FCEnOmXXoxcdBwHK99l-6" value="第三步" style="text;html=1;strokeColor=none;fillColor=none;align=center;verticalAlign=middle;whiteSpace=wrap;rounded=0;" vertex="1" parent="1">
          <mxGeometry x="280" y="470" width="40" height="20" as="geometry" />
        </mxCell>
        <mxCell id="1FCEnOmXXoxcdBwHK99l-7" value="" style="shape=flexArrow;endArrow=classic;html=1;" edge="1" parent="1">
          <mxGeometry width="50" height="50" relative="1" as="geometry">
            <mxPoint x="590" y="479.5" as="sourcePoint" />
            <mxPoint x="670" y="479.5" as="targetPoint" />
          </mxGeometry>
        </mxCell>
        <mxCell id="1FCEnOmXXoxcdBwHK99l-8" value="数据存储(store)" style="shape=cylinder3;whiteSpace=wrap;html=1;boundedLbl=1;backgroundOutline=1;size=15;strokeColor=#36393d;fillColor=#CCCCCC;" vertex="1" parent="1">
          <mxGeometry x="720" y="440" width="80" height="80" as="geometry" />
        </mxCell>
        <mxCell id="1FCEnOmXXoxcdBwHK99l-9" value="数据服务(serving)" style="rounded=0;whiteSpace=wrap;html=1;fillColor=#f9f7ed;strokeColor=#36393d;" vertex="1" parent="1">
          <mxGeometry x="700" y="320" width="120" height="60" as="geometry" />
        </mxCell>
        <mxCell id="1FCEnOmXXoxcdBwHK99l-10" value="" style="shape=flexArrow;endArrow=classic;html=1;width=36;endSize=7;fillColor=#f5f5f5;strokeColor=#666666;" edge="1" parent="1">
          <mxGeometry width="50" height="50" relative="1" as="geometry">
            <mxPoint x="459.5" y="270" as="sourcePoint" />
            <mxPoint x="459.5" y="310" as="targetPoint" />
          </mxGeometry>
        </mxCell>
        <mxCell id="1FCEnOmXXoxcdBwHK99l-11" value="" style="shape=flexArrow;endArrow=classic;html=1;width=36;endSize=7;fillColor=#f5f5f5;strokeColor=#666666;" edge="1" parent="1">
          <mxGeometry width="50" height="50" relative="1" as="geometry">
            <mxPoint x="459.5" y="390" as="sourcePoint" />
            <mxPoint x="459.5" y="430" as="targetPoint" />
          </mxGeometry>
        </mxCell>
        <mxCell id="1FCEnOmXXoxcdBwHK99l-12" value="" style="shape=flexArrow;endArrow=classic;html=1;width=36;endSize=7;fillColor=#f5f5f5;strokeColor=#666666;" edge="1" parent="1">
          <mxGeometry width="50" height="50" relative="1" as="geometry">
            <mxPoint x="759.5" y="430" as="sourcePoint" />
            <mxPoint x="759.5" y="390" as="targetPoint" />
          </mxGeometry>
        </mxCell>
        <mxCell id="1FCEnOmXXoxcdBwHK99l-13" value="第四步" style="text;html=1;strokeColor=none;fillColor=none;align=center;verticalAlign=middle;whiteSpace=wrap;rounded=0;" vertex="1" parent="1">
          <mxGeometry x="850" y="340" width="40" height="20" as="geometry" />
        </mxCell>
      </root>
    </mxGraphModel>
  </diagram>
</mxfile>
